<?xml version="1.0" encoding="utf-8"?>
<!-- Generator: Adobe Illustrator 16.0.0, SVG Export Plug-In . SVG Version: 6.00 Build 0)  -->
<!DOCTYPE svg PUBLIC "-//W3C//DTD SVG 1.1//EN" "http://www.w3.org/Graphics/SVG/1.1/DTD/svg11.dtd">
<svg version="1.1" id="1" xmlns:serif="http://www.serif.com/"
	 xmlns="http://www.w3.org/2000/svg" xmlns:xlink="http://www.w3.org/1999/xlink" x="0px" y="0px" viewBox="0 335.82 567.608 170.165" enable-background="new 0 335.82 567.608 170.165" xml:space="preserve">
<g id="logo.svg" transform="matrix(0.890625,0,0,0.890625,114,114)">
	<g transform="matrix(1,0,0,1,-128,-128)">
		<g>
			<defs>
				<rect id="SVGID_1_" x="10.161" y="388.218" width="165.474" height="169.499"/>
			</defs>
			<clipPath id="SVGID_2_">
				<use xlink:href="#SVGID_1_"  overflow="visible"/>
			</clipPath>
			<g clip-path="url(#SVGID_2_)">
				<path fill="none" stroke="#0F4C81" stroke-width="20" d="M95.454,400.613c40.112,0,71.296,32.411,71.296,73.281
					c0,40.872-31.184,73.039-71.296,73.039c-40.111,0-71.343-32.168-71.343-73.039C24.111,433.024,55.343,400.613,95.454,400.613z"
					/>
				<g transform="matrix(0.337761,-0.941232,0.941232,0.337761,-35.7111,205.244)">
					<path fill="#0F4C81" d="M-226.726,211.503c16.131-12.96,31.914-26.362,48.388-38.951
						c-8.694,13.004-17.633,25.834-26.328,38.836C-212.031,211.484-219.396,211.544-226.726,211.503L-226.726,211.503z
						 M-213.242,218.541c7.4-0.061,14.765-0.121,22.129-0.079c-16.232,12.893-31.948,26.395-48.459,38.948
						C-230.876,244.408-221.937,231.542-213.242,218.541z"/>
				</g>
			</g>
		</g>
	</g>
</g>
<g transform="matrix(1,0,0,1,-33.9927,58.4688)">
	<g enable-background="new    ">
		<path fill="#0F4C81" d="M249.161,339.03h11.231l-7.02,33.692c-1.872,8.93-4.325,14.975-7.36,18.137
			c-3.036,3.162-7.703,4.742-14.001,4.742c-5.337,0-9.333-1.227-11.989-3.68c-2.656-2.453-3.984-5.792-3.984-10.017
			c0-0.886,0.063-1.872,0.189-2.96l10.586-1.139c-0.152,1.114-0.228,2.037-0.228,2.771c0,1.771,0.505,3.124,1.518,4.06
			c1.011,0.937,2.567,1.403,4.667,1.403c2.934,0,4.996-0.859,6.185-2.579c0.885-1.315,1.96-5.021,3.225-11.117L249.161,339.03z"/>
		<path fill="#0F4C81" d="M300.497,374.619l11.534,1.745c-2.251,6.248-5.628,11.022-10.13,14.323
			c-4.502,3.301-9.776,4.951-15.822,4.951c-6.805,0-12.123-2.049-15.955-6.146s-5.748-10.041-5.748-17.833
			c0-6.323,1.283-12.109,3.851-17.358c2.567-5.249,6.127-9.264,10.681-12.047c4.553-2.782,9.51-4.173,14.873-4.173
			c6.02,0,10.889,1.612,14.608,4.837c3.718,3.225,5.906,7.621,6.564,13.185l-10.965,1.062c-0.607-3.237-1.777-5.583-3.51-7.038
			c-1.733-1.454-4.041-2.182-6.924-2.182c-3.162,0-6.115,0.962-8.859,2.884c-2.745,1.922-4.939,4.926-6.583,9.011
			c-1.645,4.085-2.466,8.164-2.466,12.236c0,4.452,1.068,7.892,3.206,10.32c2.137,2.428,4.8,3.642,7.987,3.642
			c2.959,0,5.672-0.961,8.139-2.883S299.282,378.389,300.497,374.619z"/>
		<path fill="#0F4C81" d="M315.826,394.652l11.647-55.623h11.42l-11.61,55.623H315.826z"/>
		<path fill="#0F4C81" d="M341.512,372.836c0-3.288,0.493-6.754,1.479-10.396c1.29-4.881,3.256-9.118,5.899-12.71
			c2.644-3.591,5.977-6.431,9.998-8.518c4.021-2.087,8.6-3.13,13.735-3.13c6.88,0,12.438,2.138,16.675,6.412
			c4.236,4.275,6.355,9.941,6.355,16.998c0,5.868-1.379,11.547-4.136,17.036s-6.501,9.713-11.23,12.672
			c-4.73,2.96-10.08,4.439-16.05,4.439c-5.186,0-9.536-1.176-13.052-3.528c-3.517-2.353-6.008-5.268-7.475-8.746
			C342.245,379.887,341.512,376.377,341.512,372.836z M352.818,372.608c0,3.819,1.163,7.019,3.49,9.599s5.388,3.87,9.182,3.87
			c3.086,0,6.052-1.018,8.897-3.054s5.198-5.122,7.058-9.258s2.788-8.164,2.788-12.085c0-4.375-1.176-7.809-3.528-10.301
			c-2.353-2.491-5.35-3.737-8.992-3.737c-5.59,0-10.137,2.605-13.64,7.816C354.569,360.669,352.818,366.386,352.818,372.608z"/>
		<path fill="#0F4C81" d="M422.555,394.652h-11.458l9.713-46.327h-16.314l1.935-9.295h43.823l-1.936,9.295H432.23L422.555,394.652z"
			/>
		<path fill="#0F4C81" d="M482.085,377.882h-27.317c-0.026,0.431-0.038,0.759-0.038,0.986c0,2.682,0.765,4.845,2.295,6.488
			c1.53,1.645,3.396,2.467,5.597,2.467c3.617,0,6.438-1.872,8.461-5.616l9.751,1.632c-1.896,3.921-4.433,6.861-7.607,8.821
			c-3.175,1.961-6.734,2.94-10.681,2.94c-5.413,0-9.814-1.713-13.203-5.141c-3.391-3.428-5.085-7.962-5.085-13.603
			c0-5.514,1.53-10.421,4.592-14.721c4.173-5.818,10.13-8.727,17.87-8.727c4.933,0,8.853,1.524,11.762,4.572
			c2.909,3.048,4.363,7.317,4.363,12.806C482.844,373.418,482.591,375.783,482.085,377.882z M472.903,371.242
			c0.025-0.48,0.038-0.847,0.038-1.101c0-2.984-0.671-5.223-2.011-6.716c-1.341-1.492-3.137-2.238-5.388-2.238
			c-2.252,0-4.269,0.848-6.052,2.542c-1.783,1.695-2.992,4.199-3.624,7.513H472.903z"/>
		<path fill="#0F4C81" d="M501.436,365.778l-10.624-0.91c1.215-3.592,3.333-6.399,6.355-8.423c3.022-2.023,7.025-3.035,12.009-3.035
			c5.186,0,9.018,1.043,11.496,3.13c2.479,2.087,3.719,4.636,3.719,7.645c0,1.215-0.108,2.505-0.322,3.87
			c-0.216,1.366-0.968,4.958-2.258,10.776c-1.063,4.806-1.594,8.17-1.594,10.092c0,1.721,0.304,3.63,0.911,5.729h-10.586
			c-0.431-1.467-0.696-2.984-0.797-4.553c-1.594,1.771-3.428,3.13-5.502,4.078c-2.074,0.949-4.161,1.423-6.26,1.423
			c-3.339,0-6.097-1.094-8.271-3.281c-2.176-2.188-3.264-5.002-3.264-8.442c0-3.845,1.195-6.918,3.586-9.22
			s6.659-3.693,12.806-4.174c5.185-0.43,8.65-0.948,10.396-1.556c0.456-1.518,0.684-2.731,0.684-3.643
			c0-1.163-0.469-2.137-1.404-2.921c-0.936-0.784-2.327-1.176-4.174-1.176c-1.948,0-3.484,0.398-4.609,1.195
			C502.605,363.18,501.84,364.311,501.436,365.778z M511.794,375.871c-0.658,0.178-1.531,0.342-2.618,0.493
			c-5.464,0.658-9.03,1.619-10.699,2.884c-1.189,0.91-1.783,2.138-1.783,3.681c0,1.265,0.455,2.333,1.365,3.206
			c0.911,0.872,2.112,1.309,3.604,1.309c1.645,0,3.193-0.398,4.648-1.195c1.454-0.797,2.542-1.821,3.263-3.073
			s1.359-3.206,1.916-5.862L511.794,375.871z"/>
		<path fill="#0F4C81" d="M537.366,354.358h10.245l-1.024,4.895c3.996-3.895,8.195-5.843,12.597-5.843
			c3.035,0,5.374,0.632,7.019,1.897c1.645,1.265,2.694,3.01,3.149,5.236c1.391-2.023,3.39-3.718,5.995-5.084
			c2.604-1.366,5.312-2.049,8.119-2.049c3.212,0,5.717,0.86,7.513,2.58s2.694,3.997,2.694,6.83c0,1.392-0.354,3.794-1.063,7.209
			l-5.16,24.624h-10.89l5.16-24.624c0.632-3.086,0.948-4.831,0.948-5.236c0-1.112-0.335-1.992-1.005-2.637
			c-0.671-0.645-1.676-0.968-3.017-0.968c-2.707,0-5.122,1.43-7.247,4.287c-1.543,2.049-2.858,5.68-3.945,10.89l-3.833,18.288
			h-10.889l5.084-24.358c0.582-2.808,0.873-4.629,0.873-5.464c0-1.063-0.361-1.935-1.082-2.618
			c-0.721-0.683-1.714-1.024-2.979-1.024c-1.188,0-2.415,0.354-3.68,1.063c-1.266,0.708-2.372,1.683-3.32,2.922
			s-1.765,2.833-2.447,4.78c-0.304,0.91-0.797,2.973-1.479,6.185l-3.87,18.516h-10.89L537.366,354.358z"/>
	</g>
</g>
</svg>
