<?xml version="1.0" encoding="UTF-8" standalone="no"?>
<!DOCTYPE svg PUBLIC "-//W3C//DTD SVG 1.1//EN" "http://www.w3.org/Graphics/SVG/1.1/DTD/svg11.dtd">
<svg width="100%" height="100%" viewBox="0 0 798 228" version="1.1" xmlns="http://www.w3.org/2000/svg" xmlns:xlink="http://www.w3.org/1999/xlink" xml:space="preserve" xmlns:serif="http://www.serif.com/" style="fill-rule:evenodd;clip-rule:evenodd;">
    <g id="logo.svg" transform="matrix(0.890625,0,0,0.890625,114,114)">
        <g transform="matrix(1,0,0,1,-128,-128)">
            <clipPath id="_clip1">
                <rect x="0" y="0" width="256" height="256"/>
            </clipPath>
            <g clip-path="url(#_clip1)">
                <circle cx="128" cy="128" r="114" style="fill:none;stroke:rgb(15,76,129);stroke-width:20px;"/>
                <g transform="matrix(0.337761,-0.941232,0.941232,0.337761,-35.7111,205.244)">
                    <path d="M97.637,121.69C124.964,99.364 151.695,76.264 179.617,54.593C164.971,77.098 149.909,99.304 135.263,121.808C122.701,121.868 110.14,121.868 97.637,121.689L97.637,121.69ZM120.737,134.132C133.358,134.132 145.92,134.132 158.482,134.311C130.977,156.517 104.365,179.795 76.383,201.407C91.029,178.902 106.091,156.637 120.737,134.132Z" style="fill:rgb(15,76,129);fill-rule:nonzero;"/>
                </g>
            </g>
        </g>
    </g>
    <g transform="matrix(0.577476,0,0,0.577476,78.7928,86.6254)">
        <text x="298.375px" y="98.665px" style="font-family:'Arial-BoldItalicMT', 'Arial', sans-serif;font-weight:700;font-style:italic;font-size:104.167px;fill:rgb(15,76,129);">JCIOT<tspan x="601.262px 659.195px " y="98.665px 98.665px ">ea</tspan>m</text>
    </g>
</svg>
