<?xml version="1.0" encoding="utf-8"?>
<!-- Generator: Adobe Illustrator 16.0.0, SVG Export Plug-In . SVG Version: 6.00 Build 0)  -->
<!DOCTYPE svg PUBLIC "-//W3C//DTD SVG 1.1//EN" "http://www.w3.org/Graphics/SVG/1.1/DTD/svg11.dtd">
<svg version="1.1" id="图层_1" xmlns="http://www.w3.org/2000/svg" xmlns:xlink="http://www.w3.org/1999/xlink" x="0px" y="0px"
	 width="108.895px" height="109.621px" viewBox="0 0 108.895 109.621" enable-background="new 0 0 108.895 109.621"
	 xml:space="preserve">
<g>
	<path fill="#00905A" d="M84.183,6.964c26.275,17.29,32.695,53.977,13.938,79.635c-18.799,25.715-56.018,30.715-80.35,10.795
		c0.143-1.059,0.985-0.66,1.541-0.668c2.573-0.045,5.151-0.086,7.725-0.004c3.746,0.119,7.447-0.125,11.104-0.951
		c11.298,0.549,21.865-1.939,31.453-7.99c14.036-8.854,22.444-21.531,24.983-37.962c0.959-6.203,0.865-12.442-0.426-18.624
		c-1.027-5.61-3.06-10.858-5.761-15.86c-1.176-2.259-2.729-4.269-4.194-6.338C83.783,8.418,82.778,7.638,84.183,6.964z"/>
	<path fill="#33C890" d="M94.748,30.947c2.182,10.698,1.449,21.228-2.734,31.279c-6.596,15.855-18.186,26.564-34.586,31.871
		c-6.057,1.959-12.303,2.727-18.674,2.348c-1.682-0.879-3.379,0.771-5.063-0.027c-4.752-1.355-9.65-2.219-14.191-4.289
		c-4.762-2.176-9.342-4.623-13.252-8.17c0.164-1.199,1.119-0.717,1.729-0.729c3.063-0.053,6.129-0.076,9.19-0.014
		c7.443,0.146,14.859-0.695,22.293-0.578c5.861-1.205,11.773-2.188,17.279-4.764C71.461,70.98,81.188,59.806,85.897,44.25
		c0.401-1.324,0.332-2.844,1.483-3.883c2.506-0.209,2.955-0.85,2.527-3.072c-0.359-1.867,0.102-3.793,0.785-5.45
		C91.41,30.116,93.162,30.245,94.748,30.947z"/>
	<path fill="#33C890" d="M84.183,6.964c-0.688,1.555,0.933,2.078,1.5,2.968c1.058,1.653,2.242,3.222,3.074,5.017
		c0.465,0.63,0.273,1.419,0.523,2.129c0.565,1.615,0.365,3.034-1.803,3.154c-1.222,0.067-1.513,0.721-1.464,1.813
		c0.08,1.771,0.373,3.453,1.527,4.88c0.113,0.359,0.123,0.722,0.06,1.09c-1.091,4.062-3.353,7.415-6.283,10.364
		c-4.056,3.164-8.524,5.309-13.754,5.566c-1.195,0.221-2.392,0.229-3.586,0.008c-4.351-0.58-8.265-2.172-11.652-4.99
		c-6.289-6.83-9.563-14.499-6.635-23.886C49.228,3.747,61.76-2.726,72.994,1.107C76.996,2.473,80.763,4.419,84.183,6.964z"/>
	<path fill="#5CCB93" d="M81.127,37.991c2.562-3.048,4.703-6.35,6.105-10.098c1.229,0.787,1.133,2.061,1.194,3.272
		c0.047,0.891-0.047,1.795,0.271,2.659c0.125,0.411,0.182,0.833,0.211,1.26c0.014,1.861,0.027,3.725-1.17,5.316
		c-1.484,4.645-2.683,9.381-5.033,13.719c-8.598,15.859-21.709,25.384-39.53,28.365c-0.979,0.164-1.959,0.334-2.938,0.502
		c-0.392,0.268-0.799,0.205-1.211,0.066c-2.816-0.123-5.633-0.289-8.443,0.111c-1.283-0.082-2.596,0.314-3.848-0.248
		c-3.642-1.592-7.674-1.873-11.33-3.475C9.821,77,4.62,73.984-0.001,70.003c0.5-0.982,1.257-0.59,1.832-0.596
		c7.65-0.027,15.303-0.016,22.951-0.02c11.438-0.01,22.238-2.4,31.945-8.711c2.563-1.668,5.184-3.301,7.122-5.757
		c0.943-0.131,1.277,0.642,1.732,1.201c0.521,0.643,0.965,0.488,1.418-0.051c3.713-4.714,7.092-9.673,10.731-14.439
		C78.746,40.307,79.806,39.029,81.127,37.991z"/>
	<path fill="#0A8665" d="M67.264,56.48c-0.465,0.975-0.889,1.98-1.889,0.359c-0.426-0.691-1.012-1.281-1.524-1.917
		c-3.843-5.319-7.685-10.642-11.525-15.962c1.742-0.078,2.705,1.398,4.08,2.061c2.358,1.133,4.889,1.719,7.387,2.408
		c1.312,0.561,2.672,0.242,4.006,0.188c0.681-0.026,1.301-0.146,1.769,0.488C70.699,48.584,69.443,52.617,67.264,56.48z"/>
	<path fill="#33C890" d="M26.736,82.917c1.348-0.004,2.694-0.008,4.043-0.012c2.817-0.328,5.635-0.33,8.453,0.002
		c0.336,0.027,0.672,0.055,1.006,0.08c-0.756,0.766-1.724,0.445-2.597,0.447c-9.606,0.023-19.213,0.006-28.819,0.029
		c-0.871,0.002-1.844-0.326-2.574,0.492c-1.504-1.221-0.133-0.986,0.526-0.99c4.657-0.021,9.316-0.006,13.974-0.014
		C22.744,82.953,24.74,82.929,26.736,82.917z"/>
	<path fill="#00905A" d="M33.691,96.416c1.688,0.051,3.383-1.137,5.063,0.029c-6.106,0.949-12.26,0.279-18.387,0.498
		c-0.875,0.031-1.844-0.336-2.596,0.453c-1.308-1.389,0.161-0.963,0.682-0.967c4.578-0.029,9.158-0.016,13.738-0.016
		C32.691,96.414,33.191,96.414,33.691,96.416z"/>
	<path fill="#33C890" d="M87.74,40.402c0.19-1.822,0.385-3.644,0.578-5.465c0.612-2.062,0.149-4.17,0.258-6.254
		c0.049-0.971,0.102-1.941,0.164-2.894c-0.18,0-0.34,0.03-0.494,0.118c-0.439,0.256-0.576,0.798-1.018,1.038
		c-2.603-1.515-1.396-4.196-1.861-6.344c-0.168-0.775,0.66-1.221,1.568-1.042c2.5,0.492,2.438-0.906,1.672-2.488
		c-0.41-0.848,0.233-1.417,0.147-2.124c3.027,4.947,4.931,10.315,5.992,16c-0.727-0.027-1.348,0.57-2.158,0.227
		c-0.778-0.329-1.502,0.376-1.516,0.886c-0.055,1.827-0.904,3.619-0.248,5.482c0.315,0.897,0.389,2.504-0.063,2.601
		C89.834,40.338,88.797,41.354,87.74,40.402z"/>
	<path fill="#FFFDFD" d="M73.703,22.35c-0.623,1.887-1.201,3.783-2.91,5.066c-2.627,1.97-5.914,2.082-8.574,0.229
		c-2.678-1.864-3.785-5.236-2.75-8.38c0.892-2.71,3.945-4.835,6.912-4.809c3.138,0.028,5.883,2.111,6.847,5.19
		c0.147,0.47,0.315,0.932,0.477,1.398C74.127,21.48,74.127,21.915,73.703,22.35z"/>
	<path fill="#00964A" d="M67.264,56.48c1.113-4.105,2.513-8.167,1.99-12.533c-0.396-0.494-1.133-0.008-1.518-0.529
		c1.352-1.025,3.002-0.387,4.512-0.814c3.313-0.943,5.907-3.115,8.877-4.611C76.512,44.16,72.175,50.533,67.264,56.48z"/>
	<path fill="#5BC89F" d="M87.231,26.946c0.438-0.454-0.771-2.052,1.065-1.538c0.84,2.705,0.474,5.446,0.244,8.183
		c-0.104,0.114-0.209,0.228-0.313,0.341c-1.074-1.89,0.063-4.146-0.994-6.039C87.233,27.578,87.231,27.262,87.231,26.946z"/>
	<path fill="#0A8665" d="M67.738,43.418c0.545,0.064,1.162-0.08,1.518,0.529c-1.942-0.004-3.887-0.006-5.83-0.021
		c-0.045,0-0.088-0.104-0.133-0.161c0.166-0.113,0.332-0.226,0.5-0.339C65.107,43.424,66.422,43.422,67.738,43.418z"/>
	<path fill="#33C890" d="M73.703,22.35c0-0.436,0-0.871,0-1.306c0.047-0.149,0.094-0.3,0.141-0.45
		c0.793,0.655,0.388,1.525,0.277,2.266C74.091,23.058,73.818,22.567,73.703,22.35z"/>
	<path fill="#33C890" d="M58.646,20.958c0,0.468,0,0.937,0,1.443C58.006,22.005,58.279,21.501,58.646,20.958z"/>
	<path fill="#33C890" d="M88.748,25.47c0.014-0.081,0.021-0.165,0.047-0.24c0.027-0.075,0.078-0.141,0.117-0.211
		c0.699,0.999,0.418,8.846-0.361,9.854c-0.041,0.051-0.153,0.044-0.231,0.064c-0.029-0.335-0.062-0.67-0.09-1.005l0.041,0.021
		C88.963,31.156,88.08,28.27,88.748,25.47z"/>
	<path fill="#5BC89F" d="M39.23,82.908c-2.816,0-5.636,0-8.451-0.002C33.596,82.154,36.414,82.15,39.23,82.908z"/>
	<path fill="#33C890" d="M88.748,25.47c-0.258,2.822,0.559,5.706-0.479,8.483c0.01-2.848,0.02-5.696,0.026-8.544
		C88.447,25.433,88.595,25.452,88.748,25.47z"/>
	<path fill="#00905A" d="M64.779,26.407c-3.543-1.289-4.57-4.332-2.531-7.488c0.662-0.326,1.279-0.694,1.477-1.483
		c0.406-0.483,0.939-0.592,1.533-0.519c0.822,0.188,1.646,0.36,2.479,0.068c1.502,0.816,3.174,1.467,3.449,3.494
		c-0.291,0.815-0.306,1.629,0.01,2.442c-0.486,1.825-1.412,3.216-3.455,3.506C66.754,26.359,65.766,26.4,64.779,26.407z"/>
	<path fill="#00905A" d="M64.779,26.407c0.992-0.697,1.979-0.72,2.961,0.021C66.75,26.984,65.762,26.922,64.779,26.407z"/>
	<path fill="#00905A" d="M63.723,17.438c0.207,0.082,0.414,0.163,0.621,0.245c-0.729,0.359-0.926,1.623-2.096,1.238
		C62.482,18.169,62.978,17.678,63.723,17.438z"/>
	<path fill="#00905A" d="M67.736,16.986c-0.847,0.676-1.674,0.728-2.479-0.068C66.096,16.412,66.92,16.626,67.736,16.986z"/>
	<path fill="#00905A" d="M71.197,22.922c-0.658-0.812-0.648-1.625-0.01-2.442C71.447,21.294,71.449,22.108,71.197,22.922z"/>
</g>
</svg>
